HIERARCHY
ROOT Hips
{
 OFFSET 0.000000 0.000000 0.000000
 CHANNELS 6 Xposition Yposition Zposition Yrotation Xrotation Zrotation
 JOINT Chest
 {
  OFFSET 0.000000 9.585900 0.002600
  CHANNELS 3 Yrotation Xrotation Zrotation
  JOINT Chest2
  {
   OFFSET 0.000000 9.601200 -0.005300
   CHANNELS 3 Yrotation Xrotation Zrotation
   JOINT Chest3
   {
    OFFSET 0.000000 9.561800 0.000000
    CHANNELS 3 Yrotation Xrotation Zrotation
    JOINT Chest4
    {
     OFFSET 0.000000 9.552100 0.000000
     CHANNELS 3 Yrotation Xrotation Zrotation
     JOINT Neck
     {
      OFFSET 0.000000 14.453000 0.000000
      CHANNELS 3 Yrotation Xrotation Zrotation
      JOINT Head
      {
       OFFSET 0.000000 8.936500 -0.011300
       CHANNELS 3 Yrotation Xrotation Zrotation
       End Site
       {
        OFFSET 0.000000 17.073600 -0.006000
       }
      }
     }
     JOINT RightCollar
     {
      OFFSET -2.921100 9.558500 0.000000
      CHANNELS 3 Yrotation Xrotation Zrotation
      JOINT RightShoulder
      {
       OFFSET -13.519700 0.000000 0.000000
       CHANNELS 3 Yrotation Xrotation Zrotation
       JOINT RightElbow
       {
        OFFSET 0.000000 -29.696600 0.000000
        CHANNELS 3 Yrotation Xrotation Zrotation
        JOINT RightWrist
        {
         OFFSET 0.000000 -24.004700 0.000000
         CHANNELS 3 Yrotation Xrotation Zrotation
         End Site
         {
          OFFSET 0.000000 -17.728500 0.000000
         }
        }
       }
      }
     }
     JOINT LeftCollar
     {
      OFFSET 2.921100 9.558500 0.000000
      CHANNELS 3 Yrotation Xrotation Zrotation
      JOINT LeftShoulder
      {
       OFFSET 13.519700 0.000000 0.000000
       CHANNELS 3 Yrotation Xrotation Zrotation
       JOINT LeftElbow
       {
        OFFSET 0.000000 -29.696600 0.000000
        CHANNELS 3 Yrotation Xrotation Zrotation
        JOINT LeftWrist
        {
         OFFSET 0.000000 -24.004700 0.000000
         CHANNELS 3 Yrotation Xrotation Zrotation
         End Site
         {
          OFFSET 0.000000 -17.728500 0.000000
         }
        }
       }
      }
     }
    }
   }
  }
 }
 JOINT RightHip
 {
  OFFSET -7.771700 -0.012900 -0.001300
  CHANNELS 3 Yrotation Xrotation Zrotation
  JOINT RightKnee
  {
   OFFSET 0.000000 -40.869800 0.001200
   CHANNELS 3 Yrotation Xrotation Zrotation
   JOINT RightAnkle
   {
    OFFSET 0.000000 -39.717900 0.002100
    CHANNELS 3 Yrotation Xrotation Zrotation
    JOINT RightToe
    {
     OFFSET 0.000000 -4.965400 11.033500
     CHANNELS 3 Yrotation Xrotation Zrotation
     End Site
     {
      OFFSET 0.000000 -1.423100 5.872300
     }
    }
   }
  }
 }
 JOINT LeftHip
 {
  OFFSET 7.771700 -0.012900 -0.001300
  CHANNELS 3 Yrotation Xrotation Zrotation
  JOINT LeftKnee
  {
   OFFSET 0.000000 -40.869800 0.001200
   CHANNELS 3 Yrotation Xrotation Zrotation
   JOINT LeftAnkle
   {
    OFFSET 0.000000 -39.717900 0.002100
    CHANNELS 3 Yrotation Xrotation Zrotation
    JOINT LeftToe
    {
     OFFSET 0.000000 -4.965400 11.033500
     CHANNELS 3 Yrotation Xrotation Zrotation
     End Site
     {
      OFFSET 0.000000 -1.423100 5.872300
     }
    }
   }
  }
 }
}
MOTION
Frames: 7
Frame Time: 0.008333
0.000000 85.388000 0.000000 0.000000 -5.767877 0.000000 0.000000 11.653817 0.000000 0.000000 -5.885947 0.000000 0.000000 -0.000000 0.000000 0.000000 -0.000000 0.000000 0.000000 12.528835 0.000000 0.000000 0.711642 0.000000 0.000000 -0.000000 0.000000 0.000000 0.000000 -90.000000 0.000000 -2.309062 0.000000 0.000000 2.309062 0.000000 0.000000 -0.000000 0.000000 0.000000 -0.000000 90.000000 0.000000 -2.309062 0.000000 0.000000 2.309062 0.000000 0.000000 8.520406 0.000000 0.000000 1.905762 0.000000 -0.000000 -4.658285 0.000000 0.000000 -0.000000 0.000000 0.000000 8.520406 0.000000 0.000000 1.905762 0.000000 -0.000000 -4.658285 0.000000 0.000000 -0.000000 0.000000
-14.988963 58.052246 13.684084 171.049493 -48.010569 -3.996539 5.170021 21.961440 3.198411 2.703354 12.589954 1.580176 3.456293 15.724220 2.083676 2.703287 12.589962 1.580173 0.941082 15.242709 1.619889 1.151546 -7.497565 2.677950 5.399672 5.969103 1.753821 0.423713 -19.429243 -13.386949 -95.997304 -45.478826 151.756855 6.964097 -8.503045 -14.835786 -8.200981 2.665691 -1.979847 -1.547580 -15.300136 14.438870 81.395295 -41.960341 -140.982432 -2.159957 -5.380042 -9.394820 4.199793 -24.267999 2.683462 -34.618966 72.712665 -38.019421 5.833223 -12.940063 11.183554 -0.007642 -0.112282 0.009000 -0.037958 -21.265356 12.330323 88.530152 84.064779 88.875619 -0.310082 -22.772467 -15.271488 0.033949 0.056597 0.016813
-14.992946 58.050619 13.680732 171.056337 -47.997562 -3.996536 5.210121 22.014457 3.202744 2.726419 12.620342 1.584132 3.485714 15.762038 2.089760 2.726382 12.620315 1.584093 0.932406 15.186342 1.636304 1.137472 -7.595389 2.713434 5.346282 5.813224 1.755461 0.475217 -19.447744 -13.461209 -95.854476 -45.464578 151.650903 6.853178 -8.858832 -15.462347 -8.296887 2.532643 -1.978210 -1.542081 -15.333009 14.478852 81.710198 -42.111404 -140.999715 -2.209948 -5.592588 -8.821731 4.204724 -24.282516 2.679675 -34.648891 72.714654 -38.055793 5.829020 -12.937872 11.191574 -0.007814 -0.118482 0.012510 -0.037406 -21.280766 12.318155 88.587339 84.062499 88.938621 -0.315727 -22.774173 -15.270285 0.030288 0.054580 0.016692
-14.997158 58.049105 13.676720 171.065388 -47.984642 -3.999794 5.248385 22.062742 3.208762 2.750023 12.647270 1.587456 3.515776 15.795444 2.094990 2.750007 12.647212 1.587376 0.927003 15.132354 1.653077 1.120341 -7.695515 2.747002 5.274918 5.661641 1.771513 0.551213 -19.453458 -13.543840 -95.717761 -45.468330 151.526891 6.758900 -9.202632 -16.151113 -8.394634 2.402250 -1.949440 -1.547786 -15.354905 14.502922 82.055705 -42.275789 -140.993438 -2.297510 -5.864186 -8.175081 4.217372 -24.291602 2.684565 -34.677623 72.711589 -38.097238 5.816059 -12.943690 11.210297 -0.013033 -0.115496 0.013812 -0.041738 -21.295386 12.308057 88.633012 84.058456 88.985498 -0.305848 -22.770220 -15.274588 0.026499 0.051296 0.017469
-15.000201 58.048252 13.672132 171.066627 -47.975844 -4.006426 5.294860 22.105351 3.224559 2.771850 12.669609 1.589918 3.543510 15.823220 2.099090 2.771822 12.669610 1.589863 0.927025 15.083541 1.669669 1.113481 -7.785941 2.778186 5.209695 5.532058 1.792096 0.636951 -19.454696 -13.623453 -95.612718 -45.486907 151.401713 6.685468 -9.521960 -16.883318 -8.491639 2.296720 -1.921275 -1.560627 -15.373119 14.536491 82.446844 -42.454386 -140.976840 -2.433131 -6.193334 -7.470280 4.219840 -24.300487 2.692643 -34.690722 72.711298 -38.113939 5.826258 -12.943315 11.207464 -0.008612 -0.116574 0.017816 -0.043892 -21.304022 12.309299 88.674384 84.058893 89.030289 -0.300684 -22.771889 -15.277350 0.029855 0.053202 0.016829
-15.003903 58.047513 13.667240 171.067500 -47.966795 -4.010676 5.340451 22.139406 3.238871 2.790657 12.687596 1.591968 3.567373 15.845720 2.102626 2.773893 12.666727 1.597171 0.946168 15.061321 1.676240 1.096144 -7.862738 2.809095 5.168072 5.460058 1.798780 0.731573 -19.462324 -13.692759 -95.547895 -45.512556 151.287897 6.627652 -9.809070 -17.630513 -8.559806 2.222711 -1.892603 -1.594432 -15.375992 14.566608 82.879544 -42.644252 -140.945605 -2.619469 -6.582574 -6.721880 4.224631 -24.310182 2.699816 -34.712170 72.710247 -38.138015 5.821149 -12.939668 11.206282 -0.009952 -0.118076 0.021607 -0.046549 -21.311879 12.307843 88.721788 84.059472 89.077917 -0.293186 -22.776478 -15.278178 0.024366 0.054833 0.016107
-15.009957 58.046761 13.661944 171.082268 -47.956071 -4.012458 5.348641 22.150062 3.234242 2.820132 12.715725 1.589943 3.585296 15.860572 2.104195 2.744716 12.625874 1.615772 0.994409 15.079895 1.662977 1.047937 -7.915409 2.844814 5.164352 5.456817 1.793290 0.838690 -19.466637 -13.762940 -95.510581 -45.540742 151.178707 6.576624 -10.069841 -18.354616 -8.587310 2.208006 -1.892877 -1.727290 -15.341173 14.624867 83.447607 -42.852442 -140.925133 -2.833739 -7.018262 -5.957407 4.237293 -24.317295 2.697025 -34.761158 72.706734 -38.201660 5.817342 -12.948953 11.234440 -0.012460 -0.115097 0.016362 -0.054827 -21.320826 12.292389 88.734193 84.056572 89.091896 -0.302366 -22.776993 -15.276718 0.033727 0.051219 0.016505
